<svg width="24" height="24" viewBox="0 0 24 24" fill="none" xmlns="http://www.w3.org/2000/svg">
<path d="M7.18182 15.02C7.04848 15.02 6.98848 15.0867 7.00182 15.22C7.17515 16.5933 7.73515 17.6733 8.68182 18.46C9.64182 19.2333 10.9152 19.62 12.5018 19.62C13.5152 19.62 14.4152 19.46 15.2018 19.14C16.0018 18.8067 16.6285 18.3267 17.0818 17.7C17.5485 17.0733 17.7818 16.3067 17.7818 15.4C17.7818 14.84 17.6885 14.32 17.5018 13.84C17.3285 13.36 17.0152 12.94 16.5618 12.58C16.1085 12.2067 15.4685 11.9067 14.6418 11.68L14.6818 12.34C15.7085 11.9533 16.3952 11.4667 16.7418 10.88C17.1018 10.28 17.2818 9.6 17.2818 8.84C17.2818 8 17.0685 7.3 16.6418 6.74C16.2285 6.16667 15.6552 5.73333 14.9218 5.44C14.2018 5.14667 13.3885 5 12.4818 5C10.9885 5 9.78848 5.38 8.88182 6.14C7.97515 6.88667 7.42848 7.92 7.24182 9.24C7.22848 9.37333 7.28848 9.44 7.42182 9.44H9.60182C9.72182 9.44 9.79515 9.37333 9.82182 9.24C9.91515 8.66667 10.1818 8.22 10.6218 7.9C11.0618 7.56667 11.6685 7.4 12.4418 7.4C13.1618 7.4 13.7152 7.56667 14.1018 7.9C14.4885 8.22 14.6818 8.64 14.6818 9.16C14.6818 9.64 14.5352 10.06 14.2418 10.42C13.9485 10.7667 13.4485 10.94 12.7418 10.94H10.8618C10.7285 10.94 10.6618 11.0067 10.6618 11.14V13.06C10.6618 13.1933 10.7285 13.26 10.8618 13.26H12.7618C13.3618 13.26 13.8418 13.3467 14.2018 13.52C14.5618 13.6933 14.8152 13.9267 14.9618 14.22C15.1218 14.5133 15.2018 14.8267 15.2018 15.16C15.2018 15.7733 14.9752 16.2733 14.5218 16.66C14.0818 17.0333 13.3952 17.22 12.4618 17.22C11.5818 17.22 10.9018 17.0467 10.4218 16.7C9.95515 16.34 9.67515 15.8467 9.58182 15.22C9.56849 15.0867 9.49515 15.02 9.36182 15.02H7.18182Z" fill="#1DA86D"/>
</svg>
