<svg width="13" height="14" viewBox="0 0 13 14" fill="none" xmlns="http://www.w3.org/2000/svg">
<path fill-rule="evenodd" clip-rule="evenodd" d="M12.7435 7.10476C12.7624 6.93333 12.7624 6.7619 12.7624 6.57143C12.7624 2.95238 9.90118 0 6.38118 0C2.86118 0 0 2.95238 0 6.57143C0 10.1905 2.86118 13.1429 6.38118 13.1429C9.71294 13.1238 12.4612 10.4762 12.7435 7.10476ZM11.6329 4.85714C11.52 4.8 11.4071 4.74286 11.3129 4.70476C10.6165 4.45714 9.82588 4.57143 9.28 4.8381C9.11059 4.60952 8.92235 4.38095 8.71529 4.15238C9.6 3.46667 10.1082 3.14286 10.56 2.87619C11.0306 3.44762 11.4071 4.11429 11.6329 4.85714ZM11.8588 7.08571C11.8024 7.84762 11.5765 8.55238 11.2565 9.2C11.0494 7.94286 10.56 6.76191 9.78824 5.6C10.1082 5.46667 10.5788 5.40952 11.0118 5.5619C11.5576 5.75238 11.84 6.26667 11.8588 7.08571ZM7.47294 2.89524C7.79294 2.51429 7.94353 2.0381 7.92471 1.5619C7.90588 1.39048 7.88706 1.2381 7.83059 1.08571C8.60235 1.31429 9.31765 1.69524 9.92 2.22857C9.46824 2.49524 8.94118 2.85714 8.11294 3.50476C7.88706 3.27619 7.68 3.08571 7.47294 2.89524ZM6.56941 0.895238C6.85177 1.06667 7.02118 1.31429 7.04 1.61905C7.05882 1.86667 6.96471 2.13333 6.77647 2.34286C6.04235 1.80952 5.27059 1.46667 4.42353 1.25714C5.02588 1.00952 5.68471 0.895238 6.38118 0.895238C6.43765 0.895238 6.49412 0.895238 6.56941 0.895238ZM3.18118 1.9619C4.27294 2.05714 5.17647 2.34286 6.04235 2.91429C5.21412 3.37143 4.32941 3.6 3.48235 3.79048C2.69176 3.98095 1.93882 4.17143 1.26118 4.53333C1.63765 3.48571 2.31529 2.59048 3.18118 1.9619ZM0.922353 5.88571C1.58118 5.1619 2.56 4.91429 3.67059 4.64762C4.64941 4.4 5.76 4.13333 6.79529 3.46667C7.00235 3.6381 7.20941 3.82857 7.41647 4.0381C4.8 6.17143 2.89882 8.49524 1.88235 9.79048C1.26118 8.87619 0.884706 7.75238 0.884706 6.53333C0.865882 6.34286 0.884706 6.11429 0.922353 5.88571ZM2.44706 10.5333C3.42588 9.27619 5.34588 6.89524 8.01882 4.70476C8.22588 4.95238 8.43294 5.18095 8.60235 5.42857C7.62353 6.70476 7.41647 7.50476 6.96471 9.6C6.75765 10.6095 6.32471 11.5429 5.77882 12.2095C4.48 12.0571 3.31294 11.4476 2.44706 10.5333ZM6.85176 12.2095C7.28471 11.5048 7.62353 10.6667 7.81176 9.79048C8.22588 7.88571 8.39529 7.2 9.12941 6.19048C9.97647 7.50476 10.4094 8.87619 10.4847 10.3238C9.58118 11.3905 8.30118 12.0952 6.85176 12.2095Z" fill="white"/>
</svg>
