<svg width="15" height="15" viewBox="0 0 15 15" fill="none" xmlns="http://www.w3.org/2000/svg">
<path fill-rule="evenodd" clip-rule="evenodd" d="M2.11765 2.15714C4.94118 -0.719047 9.55294 -0.719047 12.3953 2.15714C15.2188 5.01429 15.2188 9.68095 12.3953 12.5571C9.55294 15.4333 4.96 15.4143 2.11765 12.5571C-0.705882 9.7 -0.705882 5.01429 2.11765 2.15714ZM10.1176 1.71905C7.76471 0.5 4.79059 0.9 2.83294 2.88095C0.856471 4.88095 0.48 7.87143 1.68471 10.2524L2.90824 9.73809L4.90353 11.7571L4.39529 12.9952C6.74824 14.2143 9.70353 13.8143 11.68 11.8333C13.6376 9.83333 14.0141 6.82381 12.8282 4.44286L11.6047 4.95714L9.60941 2.9381L10.1176 1.71905ZM10.6259 7.3L11.5671 9.71905L9.59059 11.719L7.21882 10.7857L7.84 7.94762L10.6259 7.3ZM4.79059 3.01429L7.14353 4.02381L6.63529 6.72857L3.94353 7.22381L2.96471 4.8619L4.79059 3.01429Z" fill="white"/>
</svg>
