<svg width="24" height="24" viewBox="0 0 24 24" fill="none" xmlns="http://www.w3.org/2000/svg">
<path d="M7.00182 9.6C6.98848 9.73333 7.04848 9.8 7.18182 9.8H9.34182C9.47515 9.8 9.54849 9.73333 9.56182 9.6C9.65515 8.90667 9.92182 8.36667 10.3618 7.98C10.8018 7.59333 11.4352 7.4 12.2618 7.4C13.0085 7.4 13.5752 7.58667 13.9618 7.96C14.3618 8.32 14.5618 8.78 14.5618 9.34C14.5618 9.94 14.3752 10.4533 14.0018 10.88C13.6418 11.3067 13.0618 11.58 12.2618 11.7C11.1418 11.8733 10.1952 12.1467 9.42182 12.52C8.66182 12.88 8.08182 13.3933 7.68182 14.06C7.28182 14.7133 7.08182 15.5733 7.08182 16.64V19.22C7.08182 19.3533 7.14848 19.42 7.28182 19.42H17.1418C17.2752 19.42 17.3418 19.3533 17.3418 19.22V17.22C17.3418 17.0867 17.2752 17.02 17.1418 17.02H9.12182L9.72182 17.62V16.36C9.72182 15.7867 9.81515 15.3533 10.0018 15.06C10.2018 14.7667 10.5018 14.5467 10.9018 14.4C11.3018 14.2533 11.8018 14.12 12.4018 14C13.3618 13.8267 14.2018 13.5533 14.9218 13.18C15.6552 12.8067 16.2218 12.3067 16.6218 11.68C17.0218 11.04 17.2218 10.24 17.2218 9.28C17.2218 8.37333 17.0085 7.6 16.5818 6.96C16.1685 6.32 15.5885 5.83333 14.8418 5.5C14.1085 5.16667 13.2685 5 12.3218 5C10.7352 5 9.48849 5.40667 8.58182 6.22C7.68848 7.03333 7.16182 8.16 7.00182 9.6Z" fill="#1DA86D"/>
</svg>
