<svg width="13" height="11" viewBox="0 0 13 11" fill="none" xmlns="http://www.w3.org/2000/svg">
<path fill-rule="evenodd" clip-rule="evenodd" d="M5.10118 0C8.30118 0 9.63765 2.13333 9.84471 3.80952H10.3153C10.56 3.80952 10.7482 4 10.7482 4.24762C10.7482 4.49524 10.56 4.68571 10.3153 4.68571H9.88235V6.53333C9.88235 6.7619 9.88235 6.99048 9.90118 7.2H11.7271C12.3859 7.2 12.4424 7.73333 12.4612 7.90476V10.1714C12.4612 10.6857 12.2165 10.9143 11.7082 10.9143C11.1812 10.9143 9.6 10.6857 9.14824 8.11429H7.75529C7.56706 10.3429 5.92941 10.5333 5.40235 10.5333C4.57412 10.5333 3.87765 10.1905 3.25647 9.50476C3.12471 9.37143 2.97412 9.14286 2.86118 8.97143C2.82353 8.93333 2.78588 8.87619 2.76706 8.83809L2.71686 8.7873L1.61882 8.78095C1.35529 8.78095 0.865882 8.66667 0.715294 7.92381C0.658823 7.69524 0.583529 7.46667 0.489412 7.18095C0.263529 6.55238 0 5.77143 0 4.7619C0 2.47619 1.95765 0 5.10118 0ZM11.5576 8.11429H10.0141C10.2588 9.27619 10.7859 9.9619 11.5576 10.019V8.11429ZM5.08235 0.914286C2.48471 0.914286 0.865882 2.91429 0.865882 4.78095C0.865882 5.6381 1.09176 6.30476 1.29882 6.89524C1.39294 7.18095 1.48706 7.46667 1.54353 7.73333C1.56235 7.82857 1.56235 7.86667 1.58118 7.88571H2.67294C2.99294 7.88571 3.23765 8.01905 3.44471 8.30476C3.48235 8.34286 3.52 8.4 3.55765 8.45714C3.65176 8.60952 3.78353 8.8 3.87765 8.89524C4.46118 9.56191 4.98824 9.6381 5.38353 9.6381C6.36235 9.6381 6.87059 8.99048 6.87059 7.71429V7.65785L6.86013 7.33404C6.84758 7.11958 6.82667 6.90794 6.81412 6.70476C6.73882 5.86667 6.68235 5.06667 7.19059 4.49524C7.54823 4.11429 8.09412 3.90476 8.94118 3.84762C8.77176 2.64762 7.81176 0.914286 5.08235 0.914286ZM5.27059 7.2C5.76 7.2 6.15529 7.6 6.15529 8.09524C6.15529 8.59048 5.76 8.99048 5.27059 8.99048C4.78118 8.99048 4.38588 8.59048 4.38588 8.09524C4.38588 7.6 4.78118 7.2 5.27059 7.2ZM8.97882 4.70476C8.39529 4.74286 8.01882 4.85714 7.83059 5.06667C7.58588 5.35238 7.62353 5.90476 7.68 6.60952C7.69882 6.78095 7.69882 6.99048 7.71765 7.2H8.99765C8.97882 6.99048 8.97882 6.7619 8.97882 6.53333V4.70476Z" fill="white"/>
</svg>
